<svg width="1600" height="589" viewBox="0 0 1600 589" fill="none" xmlns="http://www.w3.org/2000/svg">
<rect y="105" width="1594" height="472" fill="white"/>
<ellipse cx="1480.72" cy="451.164" rx="3.36343" ry="3.58766" transform="rotate(-89.0044 1480.72 451.164)" fill="#C4C4C4"/>
<circle r="3.58766" transform="matrix(-0.0173762 0.999849 0.999849 0.0173762 1480.47 465.289)" fill="#C4C4C4"/>
<circle cx="1497.6" cy="434.638" r="3.58766" transform="rotate(-89.0044 1497.6 434.638)" fill="#C4C4C4"/>
<circle cx="1497.26" cy="454.366" r="3.58766" transform="rotate(-89.0044 1497.26 454.366)" fill="#C4C4C4"/>
<circle r="3.58766" transform="matrix(-0.0173762 0.999849 0.999849 0.0173762 1497.26 454.367)" fill="#C4C4C4"/>
<circle r="3.58766" transform="matrix(-0.0173762 0.999849 0.999849 0.0173762 1496.77 482.166)" fill="#C4C4C4"/>
<ellipse cx="1514.7" cy="418.339" rx="3.58766" ry="3.36343" transform="rotate(-89.0044 1514.7 418.339)" fill="#C4C4C4"/>
<circle cx="1514.36" cy="437.844" r="3.36343" transform="rotate(-89.0044 1514.36 437.844)" fill="#C4C4C4"/>
<ellipse cx="1519.72" cy="452.291" rx="3.81189" ry="3.58766" transform="rotate(-89.0044 1519.72 452.291)" fill="#C4C4C4"/>
<circle r="3.58766" transform="matrix(-0.0173762 0.999849 0.999849 0.0173762 1530.72 464.368)" fill="#C4C4C4"/>
<circle r="3.58766" transform="matrix(-0.0173762 0.999849 0.999849 0.0173762 1547.46 456.136)" fill="#C4C4C4"/>
<ellipse cx="1559.32" cy="444.905" rx="3.81189" ry="3.58766" transform="rotate(-89.0044 1559.32 444.905)" fill="#C4C4C4"/>
<ellipse rx="3.58766" ry="3.36343" transform="matrix(-0.0173762 0.999849 0.999849 0.0173762 1513.78 471.25)" fill="#C4C4C4"/>
<circle r="3.36343" transform="matrix(-0.0173762 0.999849 0.999849 0.0173762 1513.3 499.274)" fill="#C4C4C4"/>
<ellipse cx="1531.81" cy="401.817" rx="3.36343" ry="3.58766" transform="rotate(-89.0044 1531.81 401.817)" fill="#C4C4C4"/>
<circle cx="1531.47" cy="421.321" r="3.58766" transform="rotate(-89.0044 1531.47 421.321)" fill="#C4C4C4"/>
<ellipse cx="1536.83" cy="435.768" rx="3.58766" ry="3.36343" transform="rotate(-89.0044 1536.83 435.768)" fill="#C4C4C4"/>
<circle r="3.58766" transform="matrix(-0.0173762 0.999849 0.999849 0.0173762 1547.02 481.247)" fill="#C4C4C4"/>
<ellipse rx="3.58766" ry="3.36343" transform="matrix(-0.0173762 0.999849 0.999849 0.0173762 1563.99 473.019)" fill="#C4C4C4"/>
<circle cx="1576.2" cy="428.379" r="3.58766" transform="rotate(-89.0044 1576.2 428.379)" fill="#C4C4C4"/>
<ellipse cx="1578.73" cy="450.849" rx="3.58766" ry="3.36343" transform="rotate(-89.0044 1578.73 450.849)" fill="#C4C4C4"/>
<circle r="3.58766" transform="matrix(-0.0173762 0.999849 0.999849 0.0173762 1586.83 462.203)" fill="#C4C4C4"/>
<ellipse rx="3.36343" ry="3.58766" transform="matrix(-0.0173762 0.999849 0.999849 0.0173762 1530.31 488.356)" fill="#C4C4C4"/>
<circle r="3.58766" transform="matrix(-0.0173762 0.999849 0.999849 0.0173762 1529.82 516.38)" fill="#C4C4C4"/>
<circle cx="1548.69" cy="385.29" r="3.58766" transform="rotate(-89.0044 1548.69 385.29)" fill="#C4C4C4"/>
<circle cx="1548.35" cy="405.02" r="3.58766" transform="rotate(-89.0044 1548.35 405.02)" fill="#C4C4C4"/>
<ellipse cx="1553.71" cy="419.466" rx="3.58766" ry="3.36343" transform="rotate(-89.0044 1553.71 419.466)" fill="#C4C4C4"/>
<ellipse rx="3.58766" ry="3.36343" transform="matrix(-0.0173762 0.999849 0.999849 0.0173762 1563.55 498.128)" fill="#C4C4C4"/>
<circle r="3.58766" transform="matrix(-0.0173762 0.999849 0.999849 0.0173762 1580.51 490.35)" fill="#C4C4C4"/>
<ellipse cx="1593.3" cy="412.08" rx="3.58766" ry="3.36343" transform="rotate(-89.0044 1593.3 412.08)" fill="#C4C4C4"/>
<ellipse cx="1595.61" cy="434.323" rx="3.81189" ry="3.36343" transform="rotate(-89.0044 1595.61 434.323)" fill="#C4C4C4"/>
<ellipse rx="3.58766" ry="3.36343" transform="matrix(-0.0173762 0.999849 0.999849 0.0173762 1603.35 479.085)" fill="#C4C4C4"/>
<circle r="3.58766" transform="matrix(-0.0173762 0.999849 0.999849 0.0173762 1546.6 505.458)" fill="#C4C4C4"/>
<circle r="3.58766" transform="matrix(-0.0173762 0.999849 0.999849 0.0173762 1546.12 533.259)" fill="#C4C4C4"/>
<ellipse cx="1565.8" cy="368.992" rx="3.58766" ry="3.36343" transform="rotate(-89.0044 1565.8 368.992)" fill="#C4C4C4"/>
<circle cx="1565.46" cy="388.498" r="3.36343" transform="rotate(-89.0044 1565.46 388.498)" fill="#C4C4C4"/>
<ellipse cx="1570.81" cy="402.943" rx="3.81189" ry="3.58766" transform="rotate(-89.0044 1570.81 402.943)" fill="#C4C4C4"/>
<circle r="3.58766" transform="matrix(-0.0173762 0.999849 0.999849 0.0173762 1580.07 515.459)" fill="#C4C4C4"/>
<circle r="3.58766" transform="matrix(-0.0173762 0.999849 0.999849 0.0173762 1596.81 507.229)" fill="#C4C4C4"/>
<ellipse rx="3.58766" ry="3.36343" transform="matrix(-0.0173762 0.999849 0.999849 0.0173762 1563.13 522.342)" fill="#C4C4C4"/>
<circle r="3.36343" transform="matrix(-0.0173762 0.999849 0.999849 0.0173762 1562.64 550.366)" fill="#C4C4C4"/>
<ellipse cx="1582.9" cy="352.469" rx="3.36343" ry="3.58766" transform="rotate(-89.0044 1582.9 352.469)" fill="#C4C4C4"/>
<circle cx="1582.56" cy="371.975" r="3.58766" transform="rotate(-89.0044 1582.56 371.975)" fill="#C4C4C4"/>
<ellipse cx="1587.92" cy="386.421" rx="3.58766" ry="3.36343" transform="rotate(-89.0044 1587.92 386.421)" fill="#C4C4C4"/>
<circle r="3.58766" transform="matrix(-0.0173762 0.999849 0.999849 0.0173762 1596.37 532.338)" fill="#C4C4C4"/>
<ellipse rx="3.36343" ry="3.58766" transform="matrix(-0.0173762 0.999849 0.999849 0.0173762 1579.65 539.448)" fill="#C4C4C4"/>
<circle r="3.58766" transform="matrix(-0.0173762 0.999849 0.999849 0.0173762 1579.17 567.473)" fill="#C4C4C4"/>
<circle cx="1599.78" cy="335.943" r="3.58766" transform="rotate(-89.0044 1599.78 335.943)" fill="#C4C4C4"/>
<ellipse cx="1599.45" cy="355.449" rx="3.36343" ry="3.58766" transform="rotate(-89.0044 1599.45 355.449)" fill="#C4C4C4"/>
<circle r="3.58766" transform="matrix(-0.0173762 0.999849 0.999849 0.0173762 1595.95 556.551)" fill="#C4C4C4"/>
<circle r="3.58766" transform="matrix(-0.0173762 0.999849 0.999849 0.0173762 1595.47 584.352)" fill="#C4C4C4"/>
<ellipse rx="3.36343" ry="3.58766" transform="matrix(-0.0173762 -0.999849 -0.999849 0.0173762 106.105 302.199)" fill="#C4C4C4"/>
<circle cx="106.351" cy="316.324" r="3.58766" transform="rotate(89.0044 106.351 316.324)" fill="#C4C4C4"/>
<circle r="3.58766" transform="matrix(-0.0173762 -0.999849 -0.999849 0.0173762 89.2225 285.673)" fill="#C4C4C4"/>
<circle r="3.58766" transform="matrix(-0.0173762 -0.999849 -0.999849 0.0173762 89.5653 305.401)" fill="#C4C4C4"/>
<circle cx="89.5649" cy="305.402" r="3.58766" transform="rotate(89.0044 89.5649 305.402)" fill="#C4C4C4"/>
<circle cx="90.0483" cy="333.202" r="3.58766" transform="rotate(89.0044 90.0483 333.202)" fill="#C4C4C4"/>
<ellipse rx="3.58766" ry="3.36343" transform="matrix(-0.0173762 -0.999849 -0.999849 0.0173762 72.1195 269.374)" fill="#C4C4C4"/>
<circle r="3.36343" transform="matrix(-0.0173762 -0.999849 -0.999849 0.0173762 72.4584 288.88)" fill="#C4C4C4"/>
<ellipse rx="3.81189" ry="3.58766" transform="matrix(-0.0173762 -0.999849 -0.999849 0.0173762 67.1029 303.326)" fill="#C4C4C4"/>
<circle cx="56.0996" cy="315.403" r="3.58766" transform="rotate(89.0044 56.0996 315.403)" fill="#C4C4C4"/>
<circle cx="39.3608" cy="307.171" r="3.58766" transform="rotate(89.0044 39.3608 307.171)" fill="#C4C4C4"/>
<ellipse rx="3.81189" ry="3.58766" transform="matrix(-0.0173762 -0.999849 -0.999849 0.0173762 27.5042 295.94)" fill="#C4C4C4"/>
<ellipse cx="73.0387" cy="322.285" rx="3.58766" ry="3.36343" transform="rotate(89.0044 73.0387 322.285)" fill="#C4C4C4"/>
<circle cx="73.526" cy="350.309" r="3.36343" transform="rotate(89.0044 73.526 350.309)" fill="#C4C4C4"/>
<ellipse rx="3.36343" ry="3.58766" transform="matrix(-0.0173762 -0.999849 -0.999849 0.0173762 55.0125 252.852)" fill="#C4C4C4"/>
<circle r="3.58766" transform="matrix(-0.0173762 -0.999849 -0.999849 0.0173762 55.3514 272.357)" fill="#C4C4C4"/>
<ellipse rx="3.58766" ry="3.36343" transform="matrix(-0.0173762 -0.999849 -0.999849 0.0173762 49.996 286.803)" fill="#C4C4C4"/>
<circle cx="39.7974" cy="332.282" r="3.58766" transform="rotate(89.0044 39.7974 332.282)" fill="#C4C4C4"/>
<ellipse cx="22.835" cy="324.054" rx="3.58766" ry="3.36343" transform="rotate(89.0044 22.835 324.054)" fill="#C4C4C4"/>
<circle r="3.58766" transform="matrix(-0.0173762 -0.999849 -0.999849 0.0173762 10.6214 279.414)" fill="#C4C4C4"/>
<ellipse rx="3.58766" ry="3.36343" transform="matrix(-0.0173762 -0.999849 -0.999849 0.0173762 8.09658 301.884)" fill="#C4C4C4"/>
<circle cx="-0.00390771" cy="313.238" r="3.58766" transform="rotate(89.0044 -0.00390771 313.238)" fill="#C4C4C4"/>
<ellipse cx="56.5166" cy="339.392" rx="3.36343" ry="3.58766" transform="rotate(89.0044 56.5166 339.392)" fill="#C4C4C4"/>
<circle cx="57.0034" cy="367.416" r="3.58766" transform="rotate(89.0044 57.0034 367.416)" fill="#C4C4C4"/>
<circle r="3.58766" transform="matrix(-0.0173762 -0.999849 -0.999849 0.0173762 38.1297 236.325)" fill="#C4C4C4"/>
<circle r="3.58766" transform="matrix(-0.0173762 -0.999849 -0.999849 0.0173762 38.473 256.055)" fill="#C4C4C4"/>
<ellipse rx="3.58766" ry="3.36343" transform="matrix(-0.0173762 -0.999849 -0.999849 0.0173762 33.1171 270.501)" fill="#C4C4C4"/>
<ellipse cx="23.2711" cy="349.164" rx="3.58766" ry="3.36343" transform="rotate(89.0044 23.2711 349.164)" fill="#C4C4C4"/>
<circle cx="6.31592" cy="341.385" r="3.58766" transform="rotate(89.0044 6.31592 341.385)" fill="#C4C4C4"/>
<circle cx="40.2183" cy="356.494" r="3.58766" transform="rotate(89.0044 40.2183 356.494)" fill="#C4C4C4"/>
<circle cx="40.7012" cy="384.294" r="3.58766" transform="rotate(89.0044 40.7012 384.294)" fill="#C4C4C4"/>
<ellipse rx="3.58766" ry="3.36343" transform="matrix(-0.0173762 -0.999849 -0.999849 0.0173762 21.0268 220.027)" fill="#C4C4C4"/>
<circle r="3.36343" transform="matrix(-0.0173762 -0.999849 -0.999849 0.0173762 21.3656 239.533)" fill="#C4C4C4"/>
<ellipse rx="3.81189" ry="3.58766" transform="matrix(-0.0173762 -0.999849 -0.999849 0.0173762 16.0101 253.978)" fill="#C4C4C4"/>
<circle cx="6.75244" cy="366.495" r="3.58766" transform="rotate(89.0044 6.75244 366.495)" fill="#C4C4C4"/>
<ellipse cx="23.692" cy="373.377" rx="3.58766" ry="3.36343" transform="rotate(89.0044 23.692 373.377)" fill="#C4C4C4"/>
<circle cx="24.1788" cy="401.401" r="3.36343" transform="rotate(89.0044 24.1788 401.401)" fill="#C4C4C4"/>
<ellipse rx="3.36343" ry="3.58766" transform="matrix(-0.0173762 -0.999849 -0.999849 0.0173762 3.92023 203.505)" fill="#C4C4C4"/>
<circle r="3.58766" transform="matrix(-0.0173762 -0.999849 -0.999849 0.0173762 4.25911 223.01)" fill="#C4C4C4"/>
<ellipse rx="3.58766" ry="3.36343" transform="matrix(-0.0173762 -0.999849 -0.999849 0.0173762 -1.09629 237.456)" fill="#C4C4C4"/>
<ellipse cx="7.16944" cy="390.483" rx="3.36343" ry="3.58766" transform="rotate(89.0044 7.16944 390.483)" fill="#C4C4C4"/>
<circle cx="7.65625" cy="418.508" r="3.58766" transform="rotate(89.0044 7.65625 418.508)" fill="#C4C4C4"/>
<path d="M131.024 45.6216C134.167 41.7307 139.147 39.8122 144.088 40.5888L236.209 55.0662C241.15 55.8427 245.302 59.1963 247.1 63.8637L280.622 150.882C282.42 155.549 281.592 160.821 278.449 164.712L219.85 237.252C216.707 241.143 211.727 243.062 206.786 242.285L114.665 227.808C109.724 227.031 105.573 223.678 103.775 219.01L70.252 131.992C68.4539 127.325 69.2824 122.053 72.4255 118.162L131.024 45.6216Z" fill="#EAE7FF" fill-opacity="0.3"/>
</svg>
