<svg width="1110" height="429" viewBox="0 0 1110 429" fill="none" xmlns="http://www.w3.org/2000/svg">
<path d="M1048.62 11.2849C1049.64 10.2825 1051.12 9.89973 1052.49 10.2807L1085.15 19.3128C1086.53 19.6938 1087.59 20.7806 1087.95 22.1639L1096.46 54.9601C1096.82 56.3434 1096.41 57.813 1095.39 58.8154L1071.24 82.5795C1070.22 83.5818 1068.75 83.9646 1067.37 83.5836L1034.72 74.5515C1033.34 74.1706 1032.27 73.0837 1031.91 71.7004L1023.41 38.9042C1023.05 37.5209 1023.45 36.0513 1024.47 35.049L1048.62 11.2849Z" fill="#FCFCFC"/>
<g filter="url(#filter0_d_118_155)">
<path d="M1049.78 16.21C1050.8 15.2076 1052.28 14.8249 1053.65 15.2058L1081.49 22.905C1082.87 23.286 1083.94 24.3728 1084.29 25.7561L1091.55 53.7124C1091.9 55.0957 1091.5 56.5653 1090.48 57.5677L1069.89 77.8248C1068.87 78.8272 1067.4 79.2099 1066.02 78.829L1038.18 71.1298C1036.81 70.7488 1035.74 69.662 1035.38 68.2787L1028.13 40.3224C1027.77 38.9391 1028.18 37.4694 1029.2 36.4671L1049.78 16.21Z" fill="#FCFCFC"/>
</g>
<path d="M38.621 334.285C39.6396 333.282 41.1156 332.9 42.4929 333.281L75.1481 342.313C76.5254 342.694 77.5949 343.781 77.9536 345.164L86.4592 377.96C86.8179 379.343 86.4114 380.813 85.3928 381.815L61.2432 405.579C60.2246 406.582 58.7487 406.965 57.3713 406.584L24.7162 397.551C23.3389 397.171 22.2694 396.084 21.9106 394.7L13.4051 361.904C13.0464 360.521 13.4528 359.051 14.4714 358.049L38.621 334.285Z" fill="#FCFCFC"/>
<g filter="url(#filter1_d_118_155)">
<path d="M39.7811 339.21C40.7997 338.208 42.2757 337.825 43.6531 338.206L71.4891 345.905C72.8665 346.286 73.9359 347.373 74.2947 348.756L81.545 376.712C81.9038 378.096 81.4973 379.565 80.4787 380.568L59.893 400.825C58.8744 401.827 57.3984 402.21 56.0211 401.829L28.185 394.13C26.8077 393.749 25.7382 392.662 25.3794 391.279L18.1291 363.322C17.7703 361.939 18.1768 360.469 19.1954 359.467L39.7811 339.21Z" fill="#FCFCFC"/>
</g>
<rect x="49" y="48" width="1025" height="332" rx="10" fill="white"/>
<defs>
<filter id="filter0_d_118_155" x="1010" y="6.06097" width="99.6723" height="99.9128" filterUnits="userSpaceOnUse" color-interpolation-filters="sRGB">
<feFlood flood-opacity="0" result="BackgroundImageFix"/>
<feColorMatrix in="SourceAlpha" type="matrix" values="0 0 0 0 0 0 0 0 0 0 0 0 0 0 0 0 0 0 127 0" result="hardAlpha"/>
<feOffset dy="9"/>
<feGaussianBlur stdDeviation="9"/>
<feComposite in2="hardAlpha" operator="out"/>
<feColorMatrix type="matrix" values="0 0 0 0 0 0 0 0 0 0 0 0 0 0 0 0 0 0 0.12 0"/>
<feBlend mode="normal" in2="BackgroundImageFix" result="effect1_dropShadow_118_155"/>
<feBlend mode="normal" in="SourceGraphic" in2="effect1_dropShadow_118_155" result="shape"/>
</filter>
<filter id="filter1_d_118_155" x="0.000854492" y="329.061" width="99.6724" height="99.9128" filterUnits="userSpaceOnUse" color-interpolation-filters="sRGB">
<feFlood flood-opacity="0" result="BackgroundImageFix"/>
<feColorMatrix in="SourceAlpha" type="matrix" values="0 0 0 0 0 0 0 0 0 0 0 0 0 0 0 0 0 0 127 0" result="hardAlpha"/>
<feOffset dy="9"/>
<feGaussianBlur stdDeviation="9"/>
<feComposite in2="hardAlpha" operator="out"/>
<feColorMatrix type="matrix" values="0 0 0 0 0 0 0 0 0 0 0 0 0 0 0 0 0 0 0.12 0"/>
<feBlend mode="normal" in2="BackgroundImageFix" result="effect1_dropShadow_118_155"/>
<feBlend mode="normal" in="SourceGraphic" in2="effect1_dropShadow_118_155" result="shape"/>
</filter>
</defs>
</svg>