<svg width="1596" height="780" viewBox="0 0 1596 780" fill="none" xmlns="http://www.w3.org/2000/svg">
<rect width="1596" height="780" fill="white"/>
<path d="M693.511 61.2988L745.912 81.6654L695.781 78.334L693.511 61.2988Z" fill="#660F75"/>
<path d="M745.912 81.6653L694.731 53.1213L692.468 36.0781L745.912 81.6653Z" fill="#660F75"/>
<path d="M694.731 53.1213L685.823 64.3145L693.511 61.2987L745.911 81.6653L694.731 53.1213Z" fill="#213C49"/>
<path d="M685.823 64.3144L694.266 66.9797L693.511 61.2986L685.823 64.3144Z" fill="#660F75"/>
<path d="M693.511 61.2987L694.266 66.9797L692.921 66.5465L693.511 61.2987Z" fill="#213C49"/>
<path d="M560.137 122.043C560.895 113.074 564.565 111.436 568.869 107.955C571.49 105.836 573.641 103.889 574.648 100.547C575.685 97.1047 576.331 93.0846 578.692 90.285C580.374 88.2889 583.436 86.104 586.15 86.9216C588.024 87.486 592.546 89.8707 594.248 89.1886C598.182 87.6131 601.279 84.9496 603.59 80.8683C605.22 77.9892 609.761 73.1531 608.879 69.342C607.577 63.7199 596.118 67.7528 598.52 74.2916C600.142 78.7081 605.171 79.9453 608.888 81.9466C615.558 85.5376 619.888 85.9743 626.761 82.4973C634.853 78.4034 637.645 72.3582 640.173 63.9667C641.842 58.4264 649.022 59.7453 653.348 59.0023" stroke="#5B4262" stroke-width="3" stroke-linecap="round"/>
<path d="M669.146 59.0016L653.573 66.9012L653.227 51.8254L669.146 59.0016Z" fill="#5B4262"/>
</svg>
