<svg width="69" height="70" viewBox="0 0 69 70" fill="none" xmlns="http://www.w3.org/2000/svg">
<path d="M27.8085 7.66525C28.8271 6.66291 30.303 6.28012 31.6804 6.66109L46.5996 10.7876C47.9769 11.1686 49.0464 12.2554 49.4052 13.6387L53.2911 28.6224C53.6499 30.0057 53.2434 31.4753 52.2248 32.4776L41.1915 43.3348C40.1729 44.3371 38.697 44.7199 37.3196 44.3389L22.4004 40.2124C21.0231 39.8314 19.9536 38.7446 19.5948 37.3613L15.7089 22.3777C15.3501 20.9944 15.7566 19.5247 16.7752 18.5224L27.8085 7.66525Z" fill="#FCFCFC"/>
<g filter="url(#filter0_d_2_471)">
<path d="M28.414 10.2368C29.4326 9.23448 30.9086 8.8517 32.2859 9.23266L44.6894 12.6634C46.0668 13.0443 47.1362 14.1311 47.495 15.5144L50.7257 27.9715C51.0844 29.3548 50.678 30.8245 49.6594 31.8268L40.4865 40.8532C39.4679 41.8555 37.992 42.2383 36.6146 41.8574L24.2111 38.4267C22.8338 38.0457 21.7643 36.9589 21.4055 35.5756L18.1748 23.1185C17.8161 21.7352 18.2226 20.2656 19.2412 19.2632L28.414 10.2368Z" fill="url(#paint0_linear_2_471)"/>
</g>
<defs>
<filter id="filter0_d_2_471" x="0.0466309" y="0.0878296" width="68.8073" height="68.9144" filterUnits="userSpaceOnUse" color-interpolation-filters="sRGB">
<feFlood flood-opacity="0" result="BackgroundImageFix"/>
<feColorMatrix in="SourceAlpha" type="matrix" values="0 0 0 0 0 0 0 0 0 0 0 0 0 0 0 0 0 0 127 0" result="hardAlpha"/>
<feOffset dy="9"/>
<feGaussianBlur stdDeviation="9"/>
<feComposite in2="hardAlpha" operator="out"/>
<feColorMatrix type="matrix" values="0 0 0 0 0 0 0 0 0 0 0 0 0 0 0 0 0 0 0.12 0"/>
<feBlend mode="normal" in2="BackgroundImageFix" result="effect1_dropShadow_2_471"/>
<feBlend mode="normal" in="SourceGraphic" in2="effect1_dropShadow_2_471" result="shape"/>
</filter>
<linearGradient id="paint0_linear_2_471" x1="5.00024" y1="14.0004" x2="50.0002" y2="38.5004" gradientUnits="userSpaceOnUse">
<stop stop-color="#35203B"/>
<stop offset="1" stop-color="#500480"/>
</linearGradient>
</defs>
</svg>
