<svg width="1600" height="747" viewBox="0 0 1600 747" fill="none" xmlns="http://www.w3.org/2000/svg">
<rect y="32" width="1600" height="715" fill="white"/>
<ellipse cx="1477.9" cy="135.164" rx="3.36343" ry="3.58766" transform="rotate(-89.0044 1477.9 135.164)" fill="#C4C4C4"/>
<circle r="3.58766" transform="matrix(-0.0173762 0.999849 0.999849 0.0173762 1477.65 149.289)" fill="#C4C4C4"/>
<circle cx="1494.78" cy="118.638" r="3.58766" transform="rotate(-89.0044 1494.78 118.638)" fill="#C4C4C4"/>
<circle cx="1494.43" cy="138.366" r="3.58766" transform="rotate(-89.0044 1494.43 138.366)" fill="#C4C4C4"/>
<circle r="3.58766" transform="matrix(-0.0173762 0.999849 0.999849 0.0173762 1494.44 138.367)" fill="#C4C4C4"/>
<circle r="3.58766" transform="matrix(-0.0173762 0.999849 0.999849 0.0173762 1493.95 166.166)" fill="#C4C4C4"/>
<ellipse cx="1511.88" cy="102.339" rx="3.58766" ry="3.36343" transform="rotate(-89.0044 1511.88 102.339)" fill="#C4C4C4"/>
<circle cx="1511.54" cy="121.844" r="3.36343" transform="rotate(-89.0044 1511.54 121.844)" fill="#C4C4C4"/>
<ellipse cx="1516.9" cy="136.291" rx="3.81189" ry="3.58766" transform="rotate(-89.0044 1516.9 136.291)" fill="#C4C4C4"/>
<circle r="3.58766" transform="matrix(-0.0173762 0.999849 0.999849 0.0173762 1527.9 148.368)" fill="#C4C4C4"/>
<circle r="3.58766" transform="matrix(-0.0173762 0.999849 0.999849 0.0173762 1544.64 140.136)" fill="#C4C4C4"/>
<ellipse cx="1556.5" cy="128.905" rx="3.81189" ry="3.58766" transform="rotate(-89.0044 1556.5 128.905)" fill="#C4C4C4"/>
<ellipse rx="3.58766" ry="3.36343" transform="matrix(-0.0173762 0.999849 0.999849 0.0173762 1510.96 155.25)" fill="#C4C4C4"/>
<circle r="3.36343" transform="matrix(-0.0173762 0.999849 0.999849 0.0173762 1510.47 183.274)" fill="#C4C4C4"/>
<ellipse cx="1528.99" cy="85.817" rx="3.36343" ry="3.58766" transform="rotate(-89.0044 1528.99 85.817)" fill="#C4C4C4"/>
<circle cx="1528.65" cy="105.321" r="3.58766" transform="rotate(-89.0044 1528.65 105.321)" fill="#C4C4C4"/>
<ellipse cx="1534" cy="119.768" rx="3.58766" ry="3.36343" transform="rotate(-89.0044 1534 119.768)" fill="#C4C4C4"/>
<circle r="3.58766" transform="matrix(-0.0173762 0.999849 0.999849 0.0173762 1544.2 165.247)" fill="#C4C4C4"/>
<ellipse rx="3.58766" ry="3.36343" transform="matrix(-0.0173762 0.999849 0.999849 0.0173762 1561.17 157.019)" fill="#C4C4C4"/>
<circle cx="1573.38" cy="112.379" r="3.58766" transform="rotate(-89.0044 1573.38 112.379)" fill="#C4C4C4"/>
<ellipse cx="1575.9" cy="134.849" rx="3.58766" ry="3.36343" transform="rotate(-89.0044 1575.9 134.849)" fill="#C4C4C4"/>
<circle r="3.58766" transform="matrix(-0.0173762 0.999849 0.999849 0.0173762 1584 146.203)" fill="#C4C4C4"/>
<ellipse rx="3.36343" ry="3.58766" transform="matrix(-0.0173762 0.999849 0.999849 0.0173762 1527.48 172.356)" fill="#C4C4C4"/>
<circle r="3.58766" transform="matrix(-0.0173762 0.999849 0.999849 0.0173762 1527 200.38)" fill="#C4C4C4"/>
<circle cx="1545.87" cy="69.2901" r="3.58766" transform="rotate(-89.0044 1545.87 69.2901)" fill="#C4C4C4"/>
<circle cx="1545.53" cy="89.0196" r="3.58766" transform="rotate(-89.0044 1545.53 89.0196)" fill="#C4C4C4"/>
<ellipse cx="1550.88" cy="103.466" rx="3.58766" ry="3.36343" transform="rotate(-89.0044 1550.88 103.466)" fill="#C4C4C4"/>
<ellipse rx="3.58766" ry="3.36343" transform="matrix(-0.0173762 0.999849 0.999849 0.0173762 1560.73 182.128)" fill="#C4C4C4"/>
<circle r="3.58766" transform="matrix(-0.0173762 0.999849 0.999849 0.0173762 1577.68 174.35)" fill="#C4C4C4"/>
<ellipse cx="1590.48" cy="96.0801" rx="3.58766" ry="3.36343" transform="rotate(-89.0044 1590.48 96.0801)" fill="#C4C4C4"/>
<ellipse cx="1592.79" cy="118.323" rx="3.81189" ry="3.36343" transform="rotate(-89.0044 1592.79 118.323)" fill="#C4C4C4"/>
<ellipse rx="3.58766" ry="3.36343" transform="matrix(-0.0173762 0.999849 0.999849 0.0173762 1600.53 163.085)" fill="#C4C4C4"/>
<circle r="3.58766" transform="matrix(-0.0173762 0.999849 0.999849 0.0173762 1543.78 189.458)" fill="#C4C4C4"/>
<circle r="3.58766" transform="matrix(-0.0173762 0.999849 0.999849 0.0173762 1543.3 217.259)" fill="#C4C4C4"/>
<ellipse cx="1562.97" cy="52.9923" rx="3.58766" ry="3.36343" transform="rotate(-89.0044 1562.97 52.9923)" fill="#C4C4C4"/>
<circle cx="1562.63" cy="72.4977" r="3.36343" transform="rotate(-89.0044 1562.63 72.4977)" fill="#C4C4C4"/>
<ellipse cx="1567.99" cy="86.9429" rx="3.81189" ry="3.58766" transform="rotate(-89.0044 1567.99 86.9429)" fill="#C4C4C4"/>
<circle r="3.58766" transform="matrix(-0.0173762 0.999849 0.999849 0.0173762 1577.25 199.459)" fill="#C4C4C4"/>
<circle r="3.58766" transform="matrix(-0.0173762 0.999849 0.999849 0.0173762 1593.99 191.229)" fill="#C4C4C4"/>
<ellipse rx="3.58766" ry="3.36343" transform="matrix(-0.0173762 0.999849 0.999849 0.0173762 1560.31 206.342)" fill="#C4C4C4"/>
<circle r="3.36343" transform="matrix(-0.0173762 0.999849 0.999849 0.0173762 1559.82 234.366)" fill="#C4C4C4"/>
<ellipse cx="1580.08" cy="36.4694" rx="3.36343" ry="3.58766" transform="rotate(-89.0044 1580.08 36.4694)" fill="#C4C4C4"/>
<circle cx="1579.74" cy="55.9747" r="3.58766" transform="rotate(-89.0044 1579.74 55.9747)" fill="#C4C4C4"/>
<ellipse cx="1585.1" cy="70.421" rx="3.58766" ry="3.36343" transform="rotate(-89.0044 1585.1 70.421)" fill="#C4C4C4"/>
<circle r="3.58766" transform="matrix(-0.0173762 0.999849 0.999849 0.0173762 1593.55 216.338)" fill="#C4C4C4"/>
<ellipse rx="3.36343" ry="3.58766" transform="matrix(-0.0173762 0.999849 0.999849 0.0173762 1576.83 223.448)" fill="#C4C4C4"/>
<circle r="3.58766" transform="matrix(-0.0173762 0.999849 0.999849 0.0173762 1576.34 251.473)" fill="#C4C4C4"/>
<circle cx="1596.96" cy="19.9434" r="3.58766" transform="rotate(-89.0044 1596.96 19.9434)" fill="#C4C4C4"/>
<ellipse cx="1596.62" cy="39.4489" rx="3.36343" ry="3.58766" transform="rotate(-89.0044 1596.62 39.4489)" fill="#C4C4C4"/>
<ellipse cx="1601.98" cy="54.1182" rx="3.58766" ry="3.36343" transform="rotate(-89.0044 1601.98 54.1182)" fill="#C4C4C4"/>
<circle r="3.58766" transform="matrix(-0.0173762 0.999849 0.999849 0.0173762 1593.13 240.551)" fill="#C4C4C4"/>
<circle r="3.58766" transform="matrix(-0.0173762 0.999849 0.999849 0.0173762 1592.65 268.352)" fill="#C4C4C4"/>
<ellipse rx="3.36343" ry="3.58766" transform="matrix(-0.0173762 -0.999849 -0.999849 0.0173762 93.1048 515.164)" fill="#C4C4C4"/>
<circle cx="93.3506" cy="529.289" r="3.58766" transform="rotate(89.0044 93.3506 529.289)" fill="#C4C4C4"/>
<circle r="3.58766" transform="matrix(-0.0173762 -0.999849 -0.999849 0.0173762 76.2225 498.638)" fill="#C4C4C4"/>
<circle r="3.58766" transform="matrix(-0.0173762 -0.999849 -0.999849 0.0173762 76.5653 518.366)" fill="#C4C4C4"/>
<circle cx="76.5649" cy="518.367" r="3.58766" transform="rotate(89.0044 76.5649 518.367)" fill="#C4C4C4"/>
<circle cx="77.0483" cy="546.167" r="3.58766" transform="rotate(89.0044 77.0483 546.167)" fill="#C4C4C4"/>
<ellipse rx="3.58766" ry="3.36343" transform="matrix(-0.0173762 -0.999849 -0.999849 0.0173762 59.1195 482.339)" fill="#C4C4C4"/>
<circle r="3.36343" transform="matrix(-0.0173762 -0.999849 -0.999849 0.0173762 59.4584 501.844)" fill="#C4C4C4"/>
<ellipse rx="3.81189" ry="3.58766" transform="matrix(-0.0173762 -0.999849 -0.999849 0.0173762 54.1029 516.291)" fill="#C4C4C4"/>
<circle cx="43.0996" cy="528.368" r="3.58766" transform="rotate(89.0044 43.0996 528.368)" fill="#C4C4C4"/>
<circle cx="26.3608" cy="520.136" r="3.58766" transform="rotate(89.0044 26.3608 520.136)" fill="#C4C4C4"/>
<ellipse rx="3.81189" ry="3.58766" transform="matrix(-0.0173762 -0.999849 -0.999849 0.0173762 14.5042 508.905)" fill="#C4C4C4"/>
<ellipse cx="60.0386" cy="535.25" rx="3.58766" ry="3.36343" transform="rotate(89.0044 60.0386 535.25)" fill="#C4C4C4"/>
<circle cx="60.526" cy="563.274" r="3.36343" transform="rotate(89.0044 60.526 563.274)" fill="#C4C4C4"/>
<ellipse rx="3.36343" ry="3.58766" transform="matrix(-0.0173762 -0.999849 -0.999849 0.0173762 42.0125 465.817)" fill="#C4C4C4"/>
<circle r="3.58766" transform="matrix(-0.0173762 -0.999849 -0.999849 0.0173762 42.3514 485.321)" fill="#C4C4C4"/>
<ellipse rx="3.58766" ry="3.36343" transform="matrix(-0.0173762 -0.999849 -0.999849 0.0173762 36.996 499.768)" fill="#C4C4C4"/>
<circle cx="26.7974" cy="545.247" r="3.58766" transform="rotate(89.0044 26.7974 545.247)" fill="#C4C4C4"/>
<ellipse cx="9.83503" cy="537.019" rx="3.58766" ry="3.36343" transform="rotate(89.0044 9.83503 537.019)" fill="#C4C4C4"/>
<circle r="3.58766" transform="matrix(-0.0173762 -0.999849 -0.999849 0.0173762 -2.37859 492.379)" fill="#C4C4C4"/>
<ellipse cx="43.5166" cy="552.356" rx="3.36343" ry="3.58766" transform="rotate(89.0044 43.5166 552.356)" fill="#C4C4C4"/>
<circle cx="44.0034" cy="580.38" r="3.58766" transform="rotate(89.0044 44.0034 580.38)" fill="#C4C4C4"/>
<circle r="3.58766" transform="matrix(-0.0173762 -0.999849 -0.999849 0.0173762 25.1297 449.29)" fill="#C4C4C4"/>
<circle r="3.58766" transform="matrix(-0.0173762 -0.999849 -0.999849 0.0173762 25.473 469.02)" fill="#C4C4C4"/>
<ellipse rx="3.58766" ry="3.36343" transform="matrix(-0.0173762 -0.999849 -0.999849 0.0173762 20.1171 483.466)" fill="#C4C4C4"/>
<ellipse cx="10.2711" cy="562.128" rx="3.58766" ry="3.36343" transform="rotate(89.0044 10.2711 562.128)" fill="#C4C4C4"/>
<circle cx="27.2183" cy="569.458" r="3.58766" transform="rotate(89.0044 27.2183 569.458)" fill="#C4C4C4"/>
<circle cx="27.7012" cy="597.259" r="3.58766" transform="rotate(89.0044 27.7012 597.259)" fill="#C4C4C4"/>
<ellipse rx="3.58766" ry="3.36343" transform="matrix(-0.0173762 -0.999849 -0.999849 0.0173762 8.02676 432.992)" fill="#C4C4C4"/>
<circle r="3.36343" transform="matrix(-0.0173762 -0.999849 -0.999849 0.0173762 8.36562 452.498)" fill="#C4C4C4"/>
<ellipse rx="3.81189" ry="3.58766" transform="matrix(-0.0173762 -0.999849 -0.999849 0.0173762 3.01009 466.943)" fill="#C4C4C4"/>
<ellipse cx="10.692" cy="586.342" rx="3.58766" ry="3.36343" transform="rotate(89.0044 10.692 586.342)" fill="#C4C4C4"/>
<circle cx="11.1788" cy="614.366" r="3.36343" transform="rotate(89.0044 11.1788 614.366)" fill="#C4C4C4"/>
</svg>
